<svg viewBox="0 0 360 240" fill="none" xmlns="http://www.w3.org/2000/svg">
  <defs>
    <linearGradient id="msBg" x1="0" y1="0" x2="1" y2="1">
      <stop offset="0" stop-color="#E7FBF1"/>
      <stop offset="1" stop-color="#EAF2FF"/>
    </linearGradient>
    <linearGradient id="msGauge" x1="0" y1="0" x2="1" y2="0">
      <stop offset="0" stop-color="#FF9500"/>
      <stop offset="0.5" stop-color="#34C759"/>
      <stop offset="1" stop-color="#007AFF"/>
    </linearGradient>
  </defs>
  <rect x="0" y="0" width="360" height="240" rx="28" fill="url(#msBg)"/>
  <!-- data column -->
  <g transform="translate(34 80)">
    <rect x="0" y="0" width="58" height="80" rx="12" fill="#fff"/>
    <rect x="10" y="14" width="38" height="7" rx="3.5" fill="#CFE0FF"/>
    <rect x="10" y="30" width="30" height="7" rx="3.5" fill="#CFE0FF"/>
    <rect x="10" y="46" width="38" height="7" rx="3.5" fill="#BDEFD3"/>
    <rect x="10" y="62" width="24" height="7" rx="3.5" fill="#CFE0FF"/>
  </g>
  <text x="63" y="184" text-anchor="middle" font-family="-apple-system,Inter,sans-serif" font-size="12" fill="#6B7280">Dữ liệu</text>
  <!-- arrow -->
  <path d="M104 120 h34" stroke="#9CA3AF" stroke-width="3" stroke-linecap="round"/>
  <path d="M134 114 l8 6 l-8 6" stroke="#9CA3AF" stroke-width="3" fill="none" stroke-linecap="round" stroke-linejoin="round"/>
  <!-- ML node (brain/chip) -->
  <g transform="translate(150 84)">
    <rect x="0" y="0" width="72" height="72" rx="18" fill="#007AFF"/>
    <g stroke="#fff" stroke-width="2.4" fill="none" stroke-linecap="round">
      <circle cx="26" cy="26" r="5" fill="#fff" stroke="none"/>
      <circle cx="48" cy="20" r="5" fill="#fff" stroke="none"/>
      <circle cx="46" cy="48" r="5" fill="#fff" stroke="none"/>
      <circle cx="24" cy="50" r="5" fill="#fff" stroke="none"/>
      <line x1="26" y1="26" x2="48" y2="20"/><line x1="48" y1="20" x2="46" y2="48"/>
      <line x1="46" y1="48" x2="24" y2="50"/><line x1="24" y1="50" x2="26" y2="26"/>
      <line x1="26" y1="26" x2="46" y2="48"/>
    </g>
  </g>
  <text x="186" y="184" text-anchor="middle" font-family="-apple-system,Inter,sans-serif" font-size="12" fill="#6B7280">Mô hình ML</text>
  <!-- arrow -->
  <path d="M234 120 h34" stroke="#9CA3AF" stroke-width="3" stroke-linecap="round"/>
  <path d="M264 114 l8 6 l-8 6" stroke="#9CA3AF" stroke-width="3" fill="none" stroke-linecap="round" stroke-linejoin="round"/>
  <!-- score gauge -->
  <g transform="translate(282 84)">
    <path d="M6 60 A34 34 0 1 1 62 60" fill="none" stroke="#E5E7EB" stroke-width="9" stroke-linecap="round"/>
    <path d="M6 60 A34 34 0 0 1 60 22" fill="none" stroke="url(#msGauge)" stroke-width="9" stroke-linecap="round"/>
    <text x="34" y="52" text-anchor="middle" font-family="-apple-system,Inter,sans-serif" font-weight="800" font-size="22" fill="#111">701</text>
  </g>
  <text x="316" y="184" text-anchor="middle" font-family="-apple-system,Inter,sans-serif" font-size="12" fill="#6B7280">Điểm số</text>
  <!-- 3s badge -->
  <g transform="translate(150 24)">
    <rect x="0" y="0" width="60" height="30" rx="15" fill="#34C759"/>
    <text x="30" y="20" text-anchor="middle" font-family="-apple-system,Inter,sans-serif" font-weight="700" font-size="14" fill="#fff">~3 giây</text>
  </g>
</svg>
